<svg id="Layer_1" data-name="Layer 1" xmlns="http://www.w3.org/2000/svg" viewBox="0 0 16 16"><defs><style>.cls-1,.cls-2,.cls-3,.cls-4{fill:#3c4a99;fill-rule:evenodd;}.cls-1{opacity:0.9;}.cls-3{opacity:0.8;}.cls-4{opacity:0.2;}</style></defs><title>Artboard 1</title><polygon class="cls-1" points="7.93 9.23 1.16 5.61 1.16 11.39 7.93 15 7.93 9.23"/><polygon class="cls-2" points="7.93 9.23 14.7 5.61 14.7 11.39 7.93 15 7.93 9.23"/><path class="cls-3" d="M7.93,2c1.13.6,2.26,1.2,3.38,1.81l3.39,1.8L11.31,7.42,7.93,9.23,4.54,7.42,1.16,5.61l3.38-1.8Z"/><path class="cls-1" d="M10.31,6a2.3,2.3,0,0,0,.77-.59,3,3,0,0,0,.32-.76v1a1.59,1.59,0,0,1-1,1.31,5.36,5.36,0,0,1-2.45.55,5.33,5.33,0,0,1-2.45-.55,1.59,1.59,0,0,1-1-1.31v-1a1.58,1.58,0,0,0,.19.6,2,2,0,0,0,.83.71,6.09,6.09,0,0,0,2.45.54A5,5,0,0,0,10.31,6Z"/><path class="cls-4" d="M10.38,3.32a1.61,1.61,0,0,1,1,1.31,1.61,1.61,0,0,1-1,1.31,5,5,0,0,1-2.45.54,5.69,5.69,0,0,1-2.45-.54,1.68,1.68,0,0,1-1-1.31c-.06-.47.34-.95,1-1.31a5.33,5.33,0,0,1,2.45-.54A5.35,5.35,0,0,1,10.38,3.32Z"/></svg>